# xmcd
#
# Track frame offsets: 
#        150
#        21085
#        39154
#        59290
#        76466
#        93279
#        109929
#        123659
#        140330
#        154855
#        171552
#        189339
#        214021
#        231844
#
# Disc length: 3361 seconds
#
# Revision: 0
# Processed by: cddbd v1.5.2PL0 Copyright (c) Steve Scherf et al.
# Submitted via: ExactAudioCopy v1.3
#
DISCID=ba0d1f0e
DTITLE=Zed Mitchell - Summer in L.A.
DYEAR=2017
DGENRE=Blues Rock
TTITLE0=Don't Lie To Me
TTITLE1=Cadillac
TTITLE2=Her Love
TTITLE3=It's Killing Me
TTITLE4=All Alone
TTITLE5=Summer in L.A.
TTITLE6=Billion Kisses
TTITLE7=Good Night, Baby
TTITLE8=Game Is On
TTITLE9=Friends Are Like Diamonds
TTITLE10=The Lady Lives The Blues
TTITLE11=Silence
TTITLE12=On The Road Of Life
TTITLE13=Somebody Told Me
EXTD=
EXTT0=
EXTT1=
EXTT2=
EXTT3=
EXTT4=
EXTT5=
EXTT6=
EXTT7=
EXTT8=
EXTT9=
EXTT10=
EXTT11=
EXTT12=
EXTT13=
PLAYORDER=
